<svg width="300" height="450" xmlns="http://www.w3.org/2000/svg" fill="none">

 <g>
  <title>Layer 1</title>
  <rect id="svg_1" fill="#3E3E3E" height="450" width="300"/>
  <path transform="rotate(-180, 150, 224.555)" id="svg_2" fill="#5A5A5A" d="m176.674,276.11c16.894,-9.387 28.326,-27.413 28.326,-48.11c0,-30.376 -24.624,-55 -55,-55c-30.376,0 -55,24.624 -55,55c0,20.697 11.432,38.723 28.326,48.11c-13.439,-8.738 -22.326,-23.886 -22.326,-41.11c0,-27.062 21.938,-49 49,-49c27.062,0 49,21.938 49,49c0,17.224 -8.887,32.372 -22.326,41.11z"/>
  <path transform="rotate(-180, 150, 217.6)" id="svg_4" fill="#5A5A5A" d="m150,231c14.359,0 26,-11.641 26,-26c0,-5.07 -1.451,-9.802 -3.961,-13.801c5.54,5.6 8.961,13.301 8.961,21.801c0,17.121 -13.879,31 -31,31c-17.121,0 -31,-13.879 -31,-31c0,-8.5 3.421,-16.201 8.961,-21.801c-2.51,3.999 -3.961,8.731 -3.961,13.801c0,14.359 11.641,26 26,26z"/>
  <path id="svg_5" fill="#5A5A5A" d="m168,231c0,9.941 -8.059,18 -18,18c-9.941,0 -18,-8.059 -18,-18c0,-9.941 8.059,-18 18,-18c9.941,0 18,8.059 18,18z"/>
 </g>
</svg>