<svg width="110" height="104" xmlns="http://www.w3.org/2000/svg" fill="none">

 <g>
  <title>Layer 1</title>
  <path transform="rotate(-180, 55, 51.555)" id="svg_1" fill="white" d="m81.6744,103.11c16.8938,-9.3866 28.3256,-27.4133 28.3256,-48.11c0,-30.3757 -24.6243,-55 -55,-55c-30.3757,0 -55,24.6243 -55,55c0,20.6967 11.4318,38.7234 28.3255,48.11c-13.4386,-8.7376 -22.3255,-23.886 -22.3255,-41.11c0,-27.062 21.938,-49 49,-49c27.062,0 49,21.938 49,49c0,17.224 -8.8869,32.3725 -22.3256,41.11z"/>
  <path transform="rotate(-180, 54, 38.7094)" id="svg_3" fill="white" d="m54,52.11c14.3594,0 26,-11.6406 26,-26c0,-5.0703 -1.4514,-9.8017 -3.9613,-13.8013c5.5403,5.6002 8.9613,13.3013 8.9613,21.8013c0,17.1208 -13.8792,31 -31,31c-17.1208,0 -31,-13.8792 -31,-31c0,-8.5 3.421,-16.2011 8.9613,-21.8013c-2.5099,3.9996 -3.9613,8.731 -3.9613,13.8013c0,14.3594 11.6406,26 26,26z"/>
  <path id="svg_4" fill="white" d="m72,54.11c0,9.9411 -8.0589,18 -18,18c-9.9411,0 -18,-8.0589 -18,-18c0,-9.9411 8.0589,-18 18,-18c9.9411,0 18,8.0589 18,18z"/>
 </g>
</svg>